<svg id="i1" viewBox="0 0 56 70" fill="none" xmlns="http://www.w3.org/2000/svg">
<path d="M30.4892 0.878871C29.2448 -0.292631 27.0669 -0.292631 25.8225 0.878871C23.0225 3.80769 0.000244141 30.1675 0.000244141 43.6404C0.000244141 58.2848 12.4446 70.0002 28.0002 70.0002C43.5558 70.0002 56.0002 58.2848 56.0002 43.6404C56.0002 30.1675 32.9781 3.80769 30.4892 0.878871ZM28.0002 64.1425C15.8669 64.1425 6.22251 55.063 6.22251 43.6404C6.22251 34.8538 20.2225 16.4019 28.0002 7.32248C35.778 16.4019 49.778 34.8538 49.778 43.6404C49.7781 55.063 40.1336 64.1425 28.0002 64.1425Z" fill="#6CC164"/>
<path d="M35.258 29.7329L16.5593 47.3363L20.959 51.4783L39.6577 33.8749L35.258 29.7329Z" fill="#6CC164"/>
<path d="M18.6672 37.7827C20.3854 37.7827 21.7783 36.4714 21.7783 34.8539C21.7783 33.2363 20.3854 31.925 18.6672 31.925C16.949 31.925 15.5562 33.2363 15.5562 34.8539C15.5562 36.4714 16.949 37.7827 18.6672 37.7827Z" fill="#6CC164"/>
<path d="M37.3335 49.498C39.0517 49.498 40.4445 48.1868 40.4445 46.5692C40.4445 44.9517 39.0517 43.6404 37.3335 43.6404C35.6153 43.6404 34.2224 44.9517 34.2224 46.5692C34.2224 48.1868 35.6153 49.498 37.3335 49.498Z" fill="#6CC164"/>
</svg>
