<svg id="i2" viewBox="0 0 70 70" fill="none" xmlns="http://www.w3.org/2000/svg">
<path d="M22.6718 15.3604C24.0135 15.5295 25.1418 14.4011 24.9727 13.0595C24.8574 12.1454 24.1192 11.4071 23.2051 11.292C21.8634 11.123 20.7352 12.2512 20.9043 13.5927C21.0194 14.5068 21.7576 15.2451 22.6718 15.3604Z" fill="#6CC164"/>
<path d="M19.4463 23.928C20.788 24.0971 21.9164 22.9688 21.7472 21.6271C21.632 20.713 20.8937 19.9747 19.9796 19.8596C18.6379 19.6906 17.5097 20.8188 17.6788 22.1604C17.794 23.0745 18.5322 23.8127 19.4463 23.928Z" fill="#6CC164"/>
<path d="M59.749 10.2515C53.1383 3.64091 44.3491 0.000244141 35.0002 0.000244141C25.6514 0.000244141 16.862 3.64091 10.2515 10.2515C3.64091 16.8622 0.000244141 25.6514 0.000244141 35.0002C0.000244141 44.3491 3.64091 53.1383 10.2515 59.749C16.8622 66.3596 25.6514 70.0002 35.0002 70.0002C44.3491 70.0002 53.1383 66.3596 59.749 59.749C66.3596 53.1383 70.0002 44.3491 70.0002 35.0002C70.0002 25.6514 66.3596 16.8622 59.749 10.2515ZM60.2672 52.8164C53.2145 62.644 41.6678 67.4268 29.7317 65.4646C25.2079 64.7209 20.9069 62.9392 17.1823 60.266C7.3565 53.2135 2.57448 41.6687 4.53545 29.734C5.27876 25.21 7.06019 20.9088 9.73329 17.184C16.7859 7.3565 28.3327 2.5738 40.2688 4.53586C44.7926 5.27958 49.0936 7.06128 52.8182 9.73452C62.644 16.7869 67.426 28.3318 65.465 40.2665C64.7216 44.7904 62.9403 49.0916 60.2672 52.8164Z" fill="#6CC164"/>
<path d="M51.3405 19.964C51.676 14.7171 47.3328 10.3736 42.0859 10.7089C37.7491 10.986 34.2459 14.489 33.9685 18.8258C33.633 24.0727 37.9762 28.4162 43.2231 28.081C47.5599 27.8038 51.0632 24.3008 51.3405 19.964ZM38.0789 19.8943C37.7686 16.9655 40.2257 14.5087 43.1545 14.8192C45.2886 15.0455 47.0041 16.7612 47.2301 18.8953C47.5404 21.8241 45.0833 24.2809 42.1545 23.9703C40.0205 23.744 38.3049 22.0284 38.0789 19.8943Z" fill="#6CC164"/>
<path d="M58.2081 34.6949C56.397 34.6949 54.9225 33.2249 54.9154 31.4155C54.912 30.557 54.41 29.7626 53.5997 29.4791C52.1577 28.9748 50.8131 30.0315 50.8131 31.4022C50.8131 35.4602 54.0987 38.7652 58.1494 38.7967C59.2228 38.8051 60.1591 37.9974 60.2512 36.9278C60.3558 35.7131 59.4008 34.6949 58.2081 34.6949Z" fill="#6CC164"/>
<path d="M22.1489 32.9239C20.7482 31.523 18.8412 30.8122 16.8403 30.9624C15.4473 31.0668 14.1122 31.6096 13.0405 32.5053C9.95306 35.0855 9.80046 39.708 12.5825 42.4901L22.4362 52.3436C23.755 53.6623 25.4872 54.3216 27.2193 54.3216C29.0948 54.3216 30.9705 53.5486 32.3212 52.0026C34.6085 49.3846 34.3815 45.1565 31.9232 42.6982L22.1489 32.9239ZM29.1019 49.443C28.0638 50.4811 26.3749 50.4811 25.3368 49.443L15.4832 39.5893C14.8535 38.9595 14.578 38.0698 14.7572 37.162C14.8219 36.8349 14.9519 36.5215 15.1379 36.2447C15.6534 35.478 16.4762 35.0447 17.3658 35.0447C18.0768 35.0447 18.7453 35.3216 19.2483 35.8245L29.1019 45.6782C30.1399 46.7162 30.1399 48.405 29.1019 49.443Z" fill="#6CC164"/>
<path d="M50.4141 44.8837C49.639 45.6587 49.6139 46.8994 50.3384 47.7047C50.9737 48.4107 50.9858 49.4751 50.314 50.1466L50.2658 50.1947C49.6017 50.8587 48.519 50.8876 47.8454 50.233C46.6692 49.0901 45.0851 48.5132 43.4249 48.6396C42.0428 48.7447 40.7544 49.3803 39.7743 50.3604L39.659 50.4757C38.6787 51.456 38.0465 52.7458 37.943 54.1283C37.8167 55.8144 38.4159 57.4212 39.5965 58.6018C39.997 59.0023 40.522 59.2025 41.0468 59.2025C41.8724 59.2025 42.698 58.707 43.0393 57.7166C43.2841 57.0066 43.0456 56.2384 42.5091 55.7131C42.127 55.3388 41.9564 54.8077 42.0567 54.2639C42.1168 53.9385 42.291 53.6449 42.5251 53.4109L42.7005 53.2355C42.9979 52.9381 43.3912 52.7417 43.8114 52.7257C44.2618 52.7086 44.6883 52.8762 45.0052 53.1931C47.2283 55.4161 50.8457 55.4161 53.0688 53.1931L53.3147 52.9473C55.5378 50.7242 55.5378 47.1069 53.3147 44.8838C52.5138 44.0828 51.2151 44.0826 50.4141 44.8837Z" fill="#6CC164"/>
</svg>
