<svg id="i3" viewBox="0 0 70 70" fill="none" xmlns="http://www.w3.org/2000/svg">
<path d="M25.4811 21.6744C27.8678 21.6744 30.1642 20.4375 31.7819 18.281C33.2906 16.2686 34.1216 13.6251 34.1216 10.8373C34.1216 8.0495 33.2906 5.40591 31.7819 3.39412C30.1642 1.23706 27.8678 0.000183105 25.4811 0.000183105C23.0949 0.000183105 20.7985 1.23706 19.1808 3.39412C17.6721 5.40645 16.8406 8.05003 16.8406 10.8373C16.8406 13.6251 17.6721 16.2686 19.1808 18.281C20.7985 20.4375 23.0949 21.6744 25.4811 21.6744ZM25.4811 4.10175C27.9415 4.10175 30.0201 7.18646 30.0201 10.8373C30.0201 14.4886 27.9415 17.5733 25.4811 17.5733C23.0207 17.5733 20.9421 14.4886 20.9421 10.8373C20.9421 7.18646 23.0207 4.10175 25.4811 4.10175Z" fill="#6CC164"/>
<path d="M44.5184 21.6744C46.9052 21.6744 49.2016 20.4375 50.8193 18.281C52.328 16.2686 53.1595 13.6251 53.1595 10.8373C53.1595 8.05003 52.328 5.40645 50.8193 3.39412C49.2016 1.23706 46.9052 0.000183105 44.5184 0.000183105C42.1323 0.000183105 39.8358 1.23706 38.2182 3.39412C36.7095 5.40645 35.8779 8.05003 35.8779 10.8373C35.8779 13.6251 36.7095 16.2686 38.2182 18.281C39.8358 20.4375 42.1323 21.6744 44.5184 21.6744ZM44.5184 4.10175C46.9789 4.10175 49.0579 7.18646 49.0579 10.8373C49.0579 14.4886 46.9789 17.5733 44.5184 17.5733C42.0586 17.5733 39.9795 14.4886 39.9795 10.8373C39.9795 7.18646 42.0586 4.10175 44.5184 4.10175Z" fill="#6CC164"/>
<path d="M67.9817 12.4838C66.5686 10.5996 64.5552 9.51871 62.458 9.51871C60.3607 9.51871 58.3479 10.5996 56.9348 12.4838C55.6327 14.2195 54.916 16.4951 54.916 18.892C54.916 21.2883 55.6327 23.5639 56.9348 25.2996C58.3479 27.1837 60.3607 28.2647 62.458 28.2647C64.5558 28.2647 66.5686 27.1837 67.9817 25.2996C69.2838 23.5639 70.0005 21.2883 70.0005 18.892C70.0005 16.4951 69.2838 14.2195 67.9817 12.4838ZM62.458 24.1631C60.593 24.1631 59.0176 21.7492 59.0176 18.8914C59.0176 16.0342 60.593 13.6203 62.458 13.6203C64.3234 13.6203 65.8989 16.0342 65.8989 18.892C65.8989 21.7492 64.3234 24.1631 62.458 24.1631Z" fill="#6CC164"/>
<path d="M13.0665 25.2996C14.368 23.5639 15.0847 21.2883 15.0847 18.8914C15.0847 16.4951 14.368 14.2195 13.0665 12.4838C11.6534 10.5996 9.63998 9.51871 7.54274 9.51871C5.4455 9.51871 3.4321 10.5996 2.01898 12.4838C0.71695 14.2195 0.000244141 16.4951 0.000244141 18.892C0.000244141 21.2883 0.71695 23.5639 2.01898 25.2996C3.4321 27.1837 5.4455 28.2647 7.54274 28.2647C9.63998 28.2647 11.6534 27.1837 13.0665 25.2996ZM4.10181 18.892C4.10181 16.0342 5.67728 13.6203 7.54274 13.6203C9.40767 13.6203 10.9831 16.0342 10.9831 18.892C10.9831 21.7492 9.40767 24.1631 7.54274 24.1631C5.67728 24.1631 4.10181 21.7492 4.10181 18.892Z" fill="#6CC164"/>
<path d="M35.0002 27.4769C27.063 27.4769 19.6012 30.5675 13.9888 36.1799C8.37689 41.7923 5.28577 49.2542 5.28577 57.1913C5.28577 59.687 6.00728 62.1089 7.37233 64.195C9.75049 67.8303 13.7586 70.0002 18.0946 70.0002C21.6584 70.0002 24.4403 69.1761 27.1303 68.3788C29.6511 67.6322 32.0319 66.9267 35.0002 66.9267C37.969 66.9267 40.3499 67.6322 42.8706 68.3788C45.5601 69.1761 48.342 70.0002 51.9053 70.0002C56.2418 70.0002 60.251 67.8298 62.6297 64.1939C63.9937 62.1089 64.7146 59.6875 64.7146 57.1913C64.7146 49.2542 61.6235 41.7923 56.0116 36.1799C50.3992 30.5675 42.9374 27.4769 35.0002 27.4769ZM59.1973 61.9487C57.5791 64.4219 54.8533 65.8986 51.9053 65.8986C48.937 65.8986 46.5561 65.1931 44.0354 64.4465C41.3453 63.6492 38.5634 62.8251 35.0002 62.8251C31.437 62.8251 28.6556 63.6492 25.965 64.4465C23.4443 65.1931 21.0634 65.8986 18.0946 65.8986C15.1477 65.8986 12.4224 64.4225 10.8042 61.9492C9.87706 60.5324 9.38733 58.887 9.38733 57.1913C9.38733 43.0682 20.877 31.5785 35.0002 31.5785C49.1234 31.5785 60.6131 43.0682 60.6131 57.1913C60.6131 58.8875 60.1233 60.5329 59.1973 61.9487Z" fill="#6CC164"/>
</svg>
