<svg id="i4" viewBox="0 0 70 70" fill="none" xmlns="http://www.w3.org/2000/svg">
<path d="M35.0002 0.000183105C15.7016 0.000183105 0.000244141 15.7015 0.000244141 35.0002C0.000244141 54.2988 15.7016 70.0002 35.0002 70.0002C54.2989 70.0002 70.0002 54.2988 70.0002 35.0002C70.0002 15.7015 54.2989 0.000183105 35.0002 0.000183105ZM35.0002 65.6252C18.1133 65.6252 4.37526 51.8871 4.37526 35.0002C4.37526 18.1133 18.1133 4.3752 35.0002 4.3752C51.8872 4.3752 65.6252 18.1133 65.6252 35.0002C65.6252 51.8871 51.8872 65.6252 35.0002 65.6252Z" fill="#6CC164"/>
<path d="M37.1878 13.1252H32.8127V35.9059L46.5786 49.6717L49.6719 46.5785L37.1878 34.0944V13.1252Z" fill="#6CC164"/>
</svg>
